<svg width="62" height="62" viewBox="0 0 62 62" fill="none" xmlns="http://www.w3.org/2000/svg">
<rect x="1" y="1" width="60" height="60" rx="14" fill="#F9F9F9" stroke="#E8E8E8" stroke-width="2"/>
<path d="M29.3549 22.3711L30.4451 21.3305C30.9067 20.8898 31.6531 20.8898 32.1098 21.3305L41.6562 30.4383C42.1179 30.8789 42.1179 31.5914 41.6562 32.0273L32.1098 41.1398C31.6482 41.5805 30.9018 41.5805 30.4451 41.1398L29.3549 40.0992C28.8884 39.6539 28.8982 38.9273 29.3746 38.4914L35.292 33.1102H21.1786C20.5254 33.1102 20 32.6086 20 31.9852V30.4852C20 29.8617 20.5254 29.3602 21.1786 29.3602H35.292L29.3746 23.9789C28.8933 23.543 28.8835 22.8164 29.3549 22.3711Z" fill="#E8E8E8"/>
</svg>
